# xmcd
#
# Track frame offsets:
#	150
#	14303
#	37885
#	51897
#	65134
#	82808
#	97689
#	115325
#	131675
#	146681
#	165029
#	174192
#
# Disc length: 2579 seconds
#
# Revision: 1
# Processed by: cddbd v1.5.2PL0 Copyright (c) Steve Scherf et al.
# Submitted via: audiograbber 1.83.01
#
DISCID=8b0a110c
DTITLE=Tânia Soares - Tudo de Mim
DYEAR=2010
DGENRE=MPB
TTITLE0=Acontece (Cartola)
TTITLE1=Além do horizonte (Roberto Carlos e Erasmo Carlos)
TTITLE2=Tocando em Frente (Almir Sater e Renato Teixeira)
TTITLE3=Molambo (Augusto Mesquita e Jaime Florence)
TTITLE4=Coração de Papel (Sérgio Reis)
TTITLE5=Alô Fevereiro (Sidney Miller)
TTITLE6=Esperando Aviões (Vander Lee)
TTITLE7=Influência do Jazz (Carlos Lyra)
TTITLE8=As Canções que Você Fez para Mim (Roberto Carlos e Erasmo Carlos)
TTITLE9=Preciso me Encontrar (Candeia)
TTITLE10=O Pato (Jaime Silva e Neuza Teixeira)
TTITLE11=Atrás da Porta (Francis Hime e Chico Buarque)
EXTD=Para André Passos
EXTT0=
EXTT1=
EXTT2=
EXTT3=
EXTT4=
EXTT5=
EXTT6=
EXTT7=
EXTT8=
EXTT9=
EXTT10=
EXTT11=
PLAYORDER=
